<svg width="380" height="600" viewBox="0 0 380 600" fill="none" xmlns="http://www.w3.org/2000/svg">
<path d="M240 50C240 77.6142 217.614 100 190 100C162.386 100 140 77.6142 140 50C140 22.3858 162.386 0 190 0C217.614 0 240 22.3858 240 50Z" fill="url(#paint0_linear_738_18)"/>
<path d="M240 550C240 577.614 217.614 600 190 600C162.386 600 140 577.614 140 550C140 522.386 162.386 500 190 500C217.614 500 240 522.386 240 550Z" fill="url(#paint1_linear_738_18)"/>
<path d="M240 300C240 327.614 217.614 350 190 350C162.386 350 140 327.614 140 300C140 272.386 162.386 250 190 250C217.614 250 240 272.386 240 300Z" fill="url(#paint2_linear_738_18)"/>
<path d="M0 175C0 104.86 56.8598 48 127 48H141V52H127C59.069 52 4 107.069 4 175C4 242.931 59.069 298 127 298H141V302H127C56.8598 302 0 245.14 0 175Z" fill="url(#paint3_linear_738_18)"/>
<path d="M380 425C380 495.14 323.14 552 253 552H239V548H253C320.931 548 376 492.931 376 425C376 357.069 320.931 302 253 302H239V298H253C323.14 298 380 354.86 380 425Z" fill="url(#paint4_linear_738_18)"/>
<circle cx="190" cy="50" r="46" fill="#FCFCFC"/>
<path d="M175 40.7143C175 38.6656 176.682 37 178.75 37H201.25C203.318 37 205 38.6656 205 40.7143V59.2857C205 61.3344 203.318 63 201.25 63H178.75C176.682 63 175 61.3344 175 59.2857V40.7143ZM193.973 46.8951C193.709 46.5121 193.275 46.2857 192.812 46.2857C192.35 46.2857 191.91 46.5121 191.652 46.8951L186.555 54.3004L185.002 52.3795C184.732 52.0487 184.328 51.8571 183.906 51.8571C183.484 51.8571 183.074 52.0487 182.811 52.3795L179.061 57.0223C178.721 57.4402 178.656 58.0147 178.891 58.4964C179.125 58.9781 179.617 59.2857 180.156 59.2857H185.781H187.656H199.844C200.365 59.2857 200.846 59.0013 201.086 58.5429C201.326 58.0844 201.297 57.533 201.004 57.1094L193.973 46.8951ZM181.562 46.2857C182.308 46.2857 183.024 45.9922 183.551 45.4698C184.079 44.9474 184.375 44.2388 184.375 43.5C184.375 42.7612 184.079 42.0526 183.551 41.5302C183.024 41.0078 182.308 40.7143 181.562 40.7143C180.817 40.7143 180.101 41.0078 179.574 41.5302C179.046 42.0526 178.75 42.7612 178.75 43.5C178.75 44.2388 179.046 44.9474 179.574 45.4698C180.101 45.9922 180.817 46.2857 181.562 46.2857Z" fill="#B9B7B7"/>
<circle cx="190" cy="300" r="46" fill="#FCFCFC"/>
<path d="M175 290.714C175 288.666 176.682 287 178.75 287H201.25C203.318 287 205 288.666 205 290.714V309.286C205 311.334 203.318 313 201.25 313H178.75C176.682 313 175 311.334 175 309.286V290.714ZM193.973 296.895C193.709 296.512 193.275 296.286 192.812 296.286C192.35 296.286 191.91 296.512 191.652 296.895L186.555 304.3L185.002 302.379C184.732 302.049 184.328 301.857 183.906 301.857C183.484 301.857 183.074 302.049 182.811 302.379L179.061 307.022C178.721 307.44 178.656 308.015 178.891 308.496C179.125 308.978 179.617 309.286 180.156 309.286H185.781H187.656H199.844C200.365 309.286 200.846 309.001 201.086 308.543C201.326 308.084 201.297 307.533 201.004 307.109L193.973 296.895ZM181.562 296.286C182.308 296.286 183.024 295.992 183.551 295.47C184.079 294.947 184.375 294.239 184.375 293.5C184.375 292.761 184.079 292.053 183.551 291.53C183.024 291.008 182.308 290.714 181.562 290.714C180.817 290.714 180.101 291.008 179.574 291.53C179.046 292.053 178.75 292.761 178.75 293.5C178.75 294.239 179.046 294.947 179.574 295.47C180.101 295.992 180.817 296.286 181.562 296.286Z" fill="#B9B7B7"/>
<circle cx="190" cy="550" r="46" fill="#FCFCFC"/>
<path d="M175 540.714C175 538.666 176.682 537 178.75 537H201.25C203.318 537 205 538.666 205 540.714V559.286C205 561.334 203.318 563 201.25 563H178.75C176.682 563 175 561.334 175 559.286V540.714ZM193.973 546.895C193.709 546.512 193.275 546.286 192.812 546.286C192.35 546.286 191.91 546.512 191.652 546.895L186.555 554.3L185.002 552.379C184.732 552.049 184.328 551.857 183.906 551.857C183.484 551.857 183.074 552.049 182.811 552.379L179.061 557.022C178.721 557.44 178.656 558.015 178.891 558.496C179.125 558.978 179.617 559.286 180.156 559.286H185.781H187.656H199.844C200.365 559.286 200.846 559.001 201.086 558.543C201.326 558.084 201.297 557.533 201.004 557.109L193.973 546.895ZM181.562 546.286C182.308 546.286 183.024 545.992 183.551 545.47C184.079 544.947 184.375 544.239 184.375 543.5C184.375 542.761 184.079 542.053 183.551 541.53C183.024 541.008 182.308 540.714 181.562 540.714C180.817 540.714 180.101 541.008 179.574 541.53C179.046 542.053 178.75 542.761 178.75 543.5C178.75 544.239 179.046 544.947 179.574 545.47C180.101 545.992 180.817 546.286 181.562 546.286Z" fill="#B9B7B7"/>
<defs>
<linearGradient id="paint0_linear_738_18" x1="380" y1="339.189" x2="-24.8198" y2="339.189" gradientUnits="userSpaceOnUse">
<stop stop-color="#FF7E5F"/>
<stop offset="1" stop-color="#FF3F81"/>
</linearGradient>
<linearGradient id="paint1_linear_738_18" x1="380" y1="339.189" x2="-24.8198" y2="339.189" gradientUnits="userSpaceOnUse">
<stop stop-color="#FF7E5F"/>
<stop offset="1" stop-color="#FF3F81"/>
</linearGradient>
<linearGradient id="paint2_linear_738_18" x1="380" y1="339.189" x2="-24.8198" y2="339.189" gradientUnits="userSpaceOnUse">
<stop stop-color="#FF7E5F"/>
<stop offset="1" stop-color="#FF3F81"/>
</linearGradient>
<linearGradient id="paint3_linear_738_18" x1="380" y1="339.189" x2="-24.8198" y2="339.189" gradientUnits="userSpaceOnUse">
<stop stop-color="#FF7E5F"/>
<stop offset="1" stop-color="#FF3F81"/>
</linearGradient>
<linearGradient id="paint4_linear_738_18" x1="380" y1="339.189" x2="-24.8198" y2="339.189" gradientUnits="userSpaceOnUse">
<stop stop-color="#FF7E5F"/>
<stop offset="1" stop-color="#FF3F81"/>
</linearGradient>
</defs>
</svg>
