<svg width="900" height="100" viewBox="0 0 900 100" fill="none" xmlns="http://www.w3.org/2000/svg">
<path d="M5 48H895V52H5V48Z" fill="url(#paint0_linear_733_6)"/>
<path d="M500 50C500 77.6142 477.614 100 450 100C422.386 100 400 77.6142 400 50C400 22.3858 422.386 0 450 0C477.614 0 500 22.3858 500 50Z" fill="url(#paint1_linear_733_6)"/>
<path d="M900 50C900 77.6142 877.614 100 850 100C822.386 100 800 77.6142 800 50C800 22.3858 822.386 0 850 0C877.614 0 900 22.3858 900 50Z" fill="url(#paint2_linear_733_6)"/>
<path d="M100 50C100 77.6142 77.6142 100 50 100C22.3858 100 0 77.6142 0 50C0 22.3858 22.3858 0 50 0C77.6142 0 100 22.3858 100 50Z" fill="url(#paint3_linear_733_6)"/>
<circle cx="450" cy="50" r="46" fill="#FCFCFC"/>
<path d="M464 40.7143C464 38.6656 462.43 37 460.5 37H439.5C437.57 37 436 38.6656 436 40.7143V59.2857C436 61.3344 437.57 63 439.5 63H460.5C462.43 63 464 61.3344 464 59.2857V40.7143ZM446.292 46.8951C446.538 46.5121 446.943 46.2857 447.375 46.2857C447.807 46.2857 448.217 46.5121 448.458 46.8951L453.216 54.3004L454.665 52.3795C454.916 52.0487 455.294 51.8571 455.688 51.8571C456.081 51.8571 456.464 52.0487 456.71 52.3795L460.21 57.0223C460.527 57.4402 460.587 58.0147 460.369 58.4964C460.15 58.9781 459.691 59.2857 459.188 59.2857H453.938H452.188H440.812C440.326 59.2857 439.877 59.0013 439.653 58.5429C439.429 58.0844 439.456 57.533 439.73 57.1094L446.292 46.8951ZM457.875 46.2857C457.179 46.2857 456.511 45.9922 456.019 45.4698C455.527 44.9474 455.25 44.2388 455.25 43.5C455.25 42.7612 455.527 42.0526 456.019 41.5302C456.511 41.0078 457.179 40.7143 457.875 40.7143C458.571 40.7143 459.239 41.0078 459.731 41.5302C460.223 42.0526 460.5 42.7612 460.5 43.5C460.5 44.2388 460.223 44.9474 459.731 45.4698C459.239 45.9922 458.571 46.2857 457.875 46.2857Z" fill="#B9B7B7"/>
<circle cx="850" cy="50" r="46" fill="#FCFCFC"/>
<path d="M864 40.7143C864 38.6656 862.43 37 860.5 37H839.5C837.57 37 836 38.6656 836 40.7143V59.2857C836 61.3344 837.57 63 839.5 63H860.5C862.43 63 864 61.3344 864 59.2857V40.7143ZM846.292 46.8951C846.538 46.5121 846.943 46.2857 847.375 46.2857C847.807 46.2857 848.217 46.5121 848.458 46.8951L853.216 54.3004L854.665 52.3795C854.916 52.0487 855.294 51.8571 855.688 51.8571C856.081 51.8571 856.464 52.0487 856.71 52.3795L860.21 57.0223C860.527 57.4402 860.587 58.0147 860.369 58.4964C860.15 58.9781 859.691 59.2857 859.188 59.2857H853.938H852.188H840.812C840.326 59.2857 839.877 59.0013 839.653 58.5429C839.429 58.0844 839.456 57.533 839.73 57.1094L846.292 46.8951ZM857.875 46.2857C857.179 46.2857 856.511 45.9922 856.019 45.4698C855.527 44.9474 855.25 44.2388 855.25 43.5C855.25 42.7612 855.527 42.0526 856.019 41.5302C856.511 41.0078 857.179 40.7143 857.875 40.7143C858.571 40.7143 859.239 41.0078 859.731 41.5302C860.223 42.0526 860.5 42.7612 860.5 43.5C860.5 44.2388 860.223 44.9474 859.731 45.4698C859.239 45.9922 858.571 46.2857 857.875 46.2857Z" fill="#B9B7B7"/>
<circle cx="50" cy="50" r="46" fill="#FCFCFC"/>
<path d="M64 40.7143C64 38.6656 62.4305 37 60.5 37H39.5C37.5695 37 36 38.6656 36 40.7143V59.2857C36 61.3344 37.5695 63 39.5 63H60.5C62.4305 63 64 61.3344 64 59.2857V40.7143ZM46.2922 46.8951C46.5383 46.5121 46.943 46.2857 47.375 46.2857C47.807 46.2857 48.2172 46.5121 48.4578 46.8951L53.2156 54.3004L54.6648 52.3795C54.9164 52.0487 55.2938 51.8571 55.6875 51.8571C56.0812 51.8571 56.4641 52.0487 56.7102 52.3795L60.2102 57.0223C60.5273 57.4402 60.5875 58.0147 60.3687 58.4964C60.15 58.9781 59.6906 59.2857 59.1875 59.2857H53.9375H52.1875H40.8125C40.3258 59.2857 39.8773 59.0013 39.6531 58.5429C39.4289 58.0844 39.4563 57.533 39.7297 57.1094L46.2922 46.8951ZM57.875 46.2857C57.1788 46.2857 56.5111 45.9922 56.0188 45.4698C55.5266 44.9474 55.25 44.2388 55.25 43.5C55.25 42.7612 55.5266 42.0526 56.0188 41.5302C56.5111 41.0078 57.1788 40.7143 57.875 40.7143C58.5712 40.7143 59.2389 41.0078 59.7312 41.5302C60.2234 42.0526 60.5 42.7612 60.5 43.5C60.5 44.2388 60.2234 44.9474 59.7312 45.4698C59.2389 45.9922 58.5712 46.2857 57.875 46.2857Z" fill="#B9B7B7"/>
<defs>
<linearGradient id="paint0_linear_733_6" x1="900" y1="56.5315" x2="-58.7838" y2="56.5315" gradientUnits="userSpaceOnUse">
<stop stop-color="#FF7E5F"/>
<stop offset="1" stop-color="#FF3F81"/>
</linearGradient>
<linearGradient id="paint1_linear_733_6" x1="900" y1="56.5315" x2="-58.7838" y2="56.5315" gradientUnits="userSpaceOnUse">
<stop stop-color="#FF7E5F"/>
<stop offset="1" stop-color="#FF3F81"/>
</linearGradient>
<linearGradient id="paint2_linear_733_6" x1="900" y1="56.5315" x2="-58.7838" y2="56.5315" gradientUnits="userSpaceOnUse">
<stop stop-color="#FF7E5F"/>
<stop offset="1" stop-color="#FF3F81"/>
</linearGradient>
<linearGradient id="paint3_linear_733_6" x1="900" y1="56.5315" x2="-58.7838" y2="56.5315" gradientUnits="userSpaceOnUse">
<stop stop-color="#FF7E5F"/>
<stop offset="1" stop-color="#FF3F81"/>
</linearGradient>
</defs>
</svg>
